custom-analysis
version=1
nRows=4
nColumns=98
inDegrees=no

This file contains tibia displacement and acting force.

Units are S.I. units (seconds, meters, Newtons, ...)
Angles are in degrees.

endheader
time	APT	SIT	knee_angle	aACL_R_force	pACL_R_force	aPCL_R_force	pPCL_R_force	aMCL_R_force	mMCL_R_force	pMCL_R_force	aLCL_R_force	mLCL_R_force	pLCL_R_force	aPCL_L_force	pPCL_L_force	aMCL_L_force	aLCL_L_force	aACL_R_length	pACL_R_length	aPCL_R_length	pPCL_R_length	aMCL_R_length	mMCL_R_length	pMCL_R_length	aLCL_R_length	mLCL_R_length	pLCL_R_length	aPCL_L_length	pPCL_L_length	aMCL_L_length	aLCL_L_length	aACL_R_strain	pACL_R_strain	aPCL_R_strain	pPCL_R_strain	aMCL_R_strain	mMCL_R_strain	pMCL_R_strain	aLCL_R_strain	mLCL_R_strain	pLCL_R_strain	aPCL_L_strain	pPCL_L_strain	aMCL_L_strain	aLCL_L_strain	femur_lat_meniscii_r.femur_lat_r.force.X	femur_lat_meniscii_r.femur_lat_r.force.Y	femur_lat_meniscii_r.femur_lat_r.force.Z	femur_lat_meniscii_r.femur_lat_r.torque.X	femur_lat_meniscii_r.femur_lat_r.torque.Y	femur_lat_meniscii_r.femur_lat_r.torque.Z	femur_lat_meniscii_r.meniscus_lat_r.force.X	femur_lat_meniscii_r.meniscus_lat_r.force.Y	femur_lat_meniscii_r.meniscus_lat_r.force.Z	femur_lat_meniscii_r.meniscus_lat_r.torque.X	femur_lat_meniscii_r.meniscus_lat_r.torque.Y	femur_lat_meniscii_r.meniscus_lat_r.torque.Z	femur_med_meniscii_r.femur_med_r.force.X	femur_med_meniscii_r.femur_med_r.force.Y	femur_med_meniscii_r.femur_med_r.force.Z	femur_med_meniscii_r.femur_med_r.torque.X	femur_med_meniscii_r.femur_med_r.torque.Y	femur_med_meniscii_r.femur_med_r.torque.Z	femur_med_meniscii_r.meniscus_med_r.force.X	femur_med_meniscii_r.meniscus_med_r.force.Y	femur_med_meniscii_r.meniscus_med_r.force.Z	femur_med_meniscii_r.meniscus_med_r.torque.X	femur_med_meniscii_r.meniscus_med_r.torque.Y	femur_med_meniscii_r.meniscus_med_r.torque.Z	femur_med_tibia_r.tibia_upper_r.force.X	femur_med_tibia_r.tibia_upper_r.force.Y	femur_med_tibia_r.tibia_upper_r.force.Z	femur_med_tibia_r.tibia_upper_r.torque.X	femur_med_tibia_r.tibia_upper_r.torque.Y	femur_med_tibia_r.tibia_upper_r.torque.Z	femur_med_tibia_r.femur_med_r.force.X	femur_med_tibia_r.femur_med_r.force.Y	femur_med_tibia_r.femur_med_r.force.Z	femur_med_tibia_r.femur_med_r.torque.X	femur_med_tibia_r.femur_med_r.torque.Y	femur_med_tibia_r.femur_med_r.torque.Z	femur_lat_tibia_r.tibia_upper_r.force.X	femur_lat_tibia_r.tibia_upper_r.force.Y	femur_lat_tibia_r.tibia_upper_r.force.Z	femur_lat_tibia_r.tibia_upper_r.torque.X	femur_lat_tibia_r.tibia_upper_r.torque.Y	femur_lat_tibia_r.tibia_upper_r.torque.Z	femur_lat_tibia_r.femur_lat_r.force.X	femur_lat_tibia_r.femur_lat_r.force.Y	femur_lat_tibia_r.femur_lat_r.force.Z	femur_lat_tibia_r.femur_lat_r.torque.X	femur_lat_tibia_r.femur_lat_r.torque.Y	femur_lat_tibia_r.femur_lat_r.torque.Z	femur_lat_meniscii_force_r	femur_med_meniscii_force_r	femur_lat_tibia_force_r	femur_med_tibia_force_r
      0.15843667	      0.01594355	      0.02145480	     69.35037325	      0.41669932	      0.00000000	    708.07004791	    382.18598893	     57.81338374	      0.00000000	      0.00000000	      0.00000000	      0.00000000	      0.00000000	      0.00000000	      0.00000000	      0.00000001	      0.00000000	      0.03179840	      0.02446463	      0.03559173	      0.03216306	      0.06136338	      0.05967376	      0.05595724	      0.05208619	      0.04692482	      0.04199257	      0.01525851	      0.01651186	      0.06550154	      0.04489616	      0.02557272	     -0.02370705	      0.14460169	      0.07612662	      0.02226290	     -0.00200263	     -0.04717949	     -0.06951056	     -0.16679703	     -0.19773779	      0.00000079	     -0.32847694	      0.00000060	     -0.00000086	     70.82055565	    139.05207616	     -2.72260108	     -1.98783448	      1.57680490	     27.07092008	    -70.82055565	   -139.05207616	      2.72260108	      3.49138387	     -1.73048335	      4.19069043	    116.20871940	    147.05787135	    -18.28347505	     10.37842202	     -2.53769889	     45.20921477	   -116.20871940	   -147.05787135	     18.28347505	     -2.74495709	      2.63102523	      4.05929435	   -562.68204562	   -717.12733040	     97.21792166	    -13.18781161	     12.64037429	     16.66574797	    562.68204562	    717.12733040	    -97.21792166	     53.57393709	    -11.97119253	    222.01901133	      0.00000000	      0.00000000	      0.00000000	      0.00000000	      0.00000000	      0.00000000	      0.00000000	      0.00000000	      0.00000000	      0.00000000	      0.00000000	      0.00000000	    156.07191785	    188.32092144	      0.00000000	    916.69734196
      0.15847425	      0.01594196	      0.02146253	     69.37436693	     -0.78736080	      0.00000000	    712.23926174	    391.92172289	     60.39807628	      0.00000000	      0.00000000	      0.00000000	      0.00000000	      0.00000000	      0.00000000	      0.00000000	      0.00000001	      0.00000000	      0.03179788	      0.02446523	      0.03559587	      0.03216649	      0.06136627	      0.05967540	      0.05595825	      0.05208510	      0.04692316	      0.04199111	      0.01525851	      0.01651186	      0.06550154	      0.04489616	      0.02555612	     -0.02368303	      0.14473487	      0.07624158	      0.02231121	     -0.00197519	     -0.04716230	     -0.06953012	     -0.16682653	     -0.19776568	      0.00000079	     -0.32847694	      0.00000060	     -0.00000086	     66.02435594	    139.91930319	     -2.64003605	     -2.03964970	      1.47096350	     25.10320196	    -66.02435594	   -139.91930319	      2.64003605	      3.51378135	     -1.61179170	      4.29943033	    108.49208626	    148.43315621	    -18.15400496	     10.35194361	     -2.37762404	     42.08160990	   -108.49208626	   -148.43315621	     18.15400496	     -2.76458625	      2.49175814	      4.19520423	   -552.92937191	   -722.48603604	     95.84913981	    -13.24261196	     12.43287751	     17.03975318	    552.92937191	    722.48603604	    -95.84913981	     53.11041598	    -11.76797434	    217.95936241	      0.00000000	      0.00000000	      0.00000000	      0.00000000	      0.00000000	      0.00000000	      0.00000000	      0.00000000	      0.00000000	      0.00000000	      0.00000000	      0.00000000	    154.73718614	    184.74983772	      0.00000000	    914.82458439
      0.15852144	      0.01593978	      0.02147209	     69.40446106	     -0.29403437	      0.00000000	    713.44523568	    393.21028689	     61.26961736	      0.00000000	      0.00000000	      0.00000000	      0.00000000	      0.00000000	      0.00000000	      0.00000000	      0.00000001	      0.00000000	      0.03179722	      0.02446602	      0.03560126	      0.03217099	      0.06137001	      0.05967757	      0.05595964	      0.05208387	      0.04692123	      0.04198945	      0.01525851	      0.01651186	      0.06550154	      0.04489616	      0.02553476	     -0.02365162	      0.14490807	      0.07639220	      0.02237345	     -0.00193886	     -0.04713864	     -0.06955204	     -0.16686083	     -0.19779739	      0.00000079	     -0.32847694	      0.00000060	     -0.00000086	     65.39894173	    139.48070486	     -3.01106776	     -1.87862873	      1.45188596	     24.85205317	    -65.39894173	   -139.48070486	      3.01106776	      3.49728269	     -1.58160430	      4.29543134	    107.80652872	    147.75286176	    -18.85829818	     10.62052180	     -2.36990193	     41.81087253	   -107.80652872	   -147.75286176	     18.85829818	     -2.75849938	      2.50364874	      4.18155011	   -549.63784952	   -715.27407246	     96.78520491	    -13.13537034	     12.41167777	     16.84915427	    549.63784952	    715.27407246	    -96.78520491	     53.35020793	    -11.71381257	    216.68614438	      0.00000000	      0.00000000	      0.00000000	      0.00000000	      0.00000000	      0.00000000	      0.00000000	      0.00000000	      0.00000000	      0.00000000	      0.00000000	      0.00000000	    154.08100187	    183.87167047	      0.00000000	    907.24094939
      0.15863669	      0.01593493	      0.02149542	     69.47805946	      1.74343690	      0.00000000	    714.30849757	    390.83475060	     61.95548079	      0.00000000	      0.00000000	      0.00000000	      0.00000000	      0.00000000	      0.00000000	      0.00000000	      0.00000001	      0.00000000	      0.03179598	      0.02446825	      0.03561423	      0.03218178	      0.06137926	      0.05968295	      0.05596308	      0.05208085	      0.04691648	      0.04198533	      0.01525851	      0.01651186	      0.06550154	      0.04489616	      0.02549497	     -0.02356268	      0.14532502	      0.07675302	      0.02252751	     -0.00184889	     -0.04708011	     -0.06960603	     -0.16694519	     -0.19787609	      0.00000079	     -0.32847694	      0.00000060	     -0.00000086	     66.56144882	    137.78203945	     -4.10357411	     -1.39743135	      1.46257211	     25.34349736	    -66.56144882	   -137.78203945	      4.10357411	      3.44023468	     -1.56892605	      4.22055682	    109.94923912	    144.22572521	    -20.43052120	     11.17348050	     -2.42281693	     42.70708545	   -109.94923912	   -144.22572521	     20.43052120	     -2.70444846	      2.58880033	      4.04173193	   -545.90533210	   -692.49321779	    100.40478968	    -12.81550508	     12.47651628	     16.12140377	    545.90533210	    692.49321779	   -100.40478968	     54.38496103	    -11.67827793	    215.39904831	      0.00000000	      0.00000000	      0.00000000	      0.00000000	      0.00000000	      0.00000000	      0.00000000	      0.00000000	      0.00000000	      0.00000000	      0.00000000	      0.00000000	    153.07238871	    182.50287995	      0.00000000	    887.49118874
